<?xml version="1.0" encoding="UTF-8"?>
<svg version="1.1" xmlns="http://www.w3.org/2000/svg" width="484" height="512">
<path d="M0 0 C0.85207031 0.68964844 1.70414063 1.37929687 2.58203125 2.08984375 C14.28649506 12.07461123 22.5187203 25.44656315 24 41 C25.23439494 61.32769736 20.613577 76.96803218 7.05541992 92.53344727 C1.81203609 98.41567394 -3.6711632 103.7731731 -9.62890625 108.91796875 C-14.36047623 113.07270813 -18.96735544 117.36361477 -23.56542969 121.66503906 C-24.71312933 122.73304819 -25.87398084 123.78691762 -27.0390625 124.8359375 C-46.66947043 143.16385391 -52.45772965 168.71461889 -56.5 194.1875 C-59.76456852 214.65811611 -64.78636266 233.24379737 -79 249 C-79.60328125 249.69609375 -80.2065625 250.3921875 -80.828125 251.109375 C-90.05817747 261.11506213 -104.15451149 269.25399992 -117.98095703 270.12475586 C-140.80676965 270.92273951 -158.88429196 264.10887974 -176 249 C-198.78419479 227.3091644 -207.379176 193.8258822 -208.203125 163.30078125 C-208.73589942 122.7559737 -200.23898945 78.2309502 -174 46 C-173.58637207 45.48775879 -173.17274414 44.97551758 -172.74658203 44.44775391 C-146.55254617 12.16697825 -109.09719405 -12.9934142 -67.04760742 -17.8125 C-43.29990713 -19.98708374 -18.83260015 -15.31547618 0 0 Z M-82 114 C-82.63292969 114.61875 -83.26585938 115.2375 -83.91796875 115.875 C-93.15013865 125.63865943 -97.72006802 138.63917253 -97.35546875 152.0078125 C-96.48679184 159.31997201 -93.63942634 166.27804085 -89 172 C-88.34 172 -87.68 172 -87 172 C-85.62092294 167.55174292 -84.66783902 163.2525898 -84.01269531 158.64501953 C-80.98466967 137.50794563 -70.87462753 119.97773485 -55.31933594 105.42797852 C-53.77379539 104.07919543 -53.77379539 104.07919543 -54 102 C-64.15489177 102 -74.91289569 106.95691497 -82 114 Z " fill="#FFFFFF" transform="translate(208,100)"/>
<path d="M0 0 C5.64650508 4.44163745 11.04907111 9.10746029 16.25 14.0625 C16.82008789 14.60535645 17.39017578 15.14821289 17.97753906 15.70751953 C26.57042632 23.94442214 34.38215632 32.33714795 41.25 42.0625 C41.64461426 42.60745117 42.03922852 43.15240234 42.44580078 43.71386719 C68.92115804 80.44084047 80.77735927 123.55090472 73.65795898 168.55737305 C67.48466403 204.09757083 52.98282672 239.07974101 22.66918945 260.47998047 C5.24793044 272.40039981 -15.06621757 278.46200982 -36.17578125 275.59765625 C-53.66874811 272.05716356 -67.70832975 261.6796087 -77.75 247.0625 C-84.63397883 234.91227737 -86.95954101 221.7505613 -86.875 207.9375 C-86.8745166 207.1525415 -86.8740332 206.36758301 -86.87353516 205.55883789 C-86.84078245 199.55888058 -86.620531 193.5737798 -86.37011719 187.57936096 C-84.95131075 153.21894664 -91.0583505 128.71775632 -111.75 101.0625 C-128.57465007 78.56500117 -138.50248894 56.7897402 -135.75 28.0625 C-134.12896272 17.9640381 -129.86974141 9.23132337 -123.75 1.0625 C-123.28980469 0.42054687 -122.82960937 -0.22140625 -122.35546875 -0.8828125 C-92.13252132 -39.72844521 -33.29618814 -25.52201562 0 0 Z M-76.75 92.0625 C-75.4278563 95.92774663 -73.83072141 98.32601839 -71 101.25 C-56.7642307 116.87588059 -52.75155841 136.97312896 -51.9609375 157.48046875 C-51.79978097 160.21714539 -51.56688796 162.47122427 -50.75 165.0625 C-50.09 165.0625 -49.43 165.0625 -48.75 165.0625 C-40.22642072 149.26414492 -36.82384449 137.03096789 -41.5 119.203125 C-45.57502831 107.77849205 -53.02951444 99.30927921 -63.8515625 94.0390625 C-68.29343041 92.16970496 -71.9547252 91.76279532 -76.75 92.0625 Z " fill="#FFFFFF" transform="translate(376.75,23.9375)"/>
<path d="M0 0 C18.86152545 12.38838153 36.09530543 20.63829563 59.125 20.625 C60.28974854 20.62564453 61.45449707 20.62628906 62.65454102 20.62695312 C69.29909989 20.58672463 75.78640775 20.28001413 82.375 19.4375 C111.9311359 15.77909636 138.80784794 18.81164318 163.0625 37.1875 C176.75557276 48.5448217 184.79696743 64.90015424 186.9375 82.4375 C188.42834728 107.40919199 180.46463134 129.62113763 163.9375 148.4375 C140.73145295 173.86970854 109.23184143 186.79408152 75.9375 193.4375 C75.17373047 193.60121094 74.40996094 193.76492188 73.62304688 193.93359375 C60.78334779 196.61453178 47.87544865 196.74783418 34.8125 196.8125 C33.9722226 196.82044586 33.13194519 196.82839172 32.26620483 196.83657837 C-15.36732899 197.18230048 -56.68899113 176.5802307 -90.25 143.5625 C-113.51784603 120.16703655 -129.14693047 89.44771642 -130.375 56.1875 C-129.84371766 33.90684673 -122.97059594 11.20328476 -107 -4.83984375 C-98.00767565 -13.39984481 -87.67381317 -17.80735191 -76.0625 -21.5625 C-75.26328125 -21.830625 -74.4640625 -22.09875 -73.640625 -22.375 C-46.82378711 -29.85876871 -21.43166662 -14.13041141 0 0 Z M-101.19140625 11.98828125 C-113.14740063 28.39090732 -116.3399882 49.73503158 -113.56640625 69.5546875 C-108.97330551 94.51831977 -95.74849224 115.15015714 -78.38330078 133.06542969 C-77.27641497 134.21528149 -76.19546185 135.39002078 -75.12109375 136.5703125 C-48.80608228 164.7103024 -9.68913775 180.33269658 28.265625 181.71875 C71.86279251 182.66026052 117.35671341 171.76703565 149.6875 141.1875 C163.92671334 126.45012176 171.37908698 108.14320557 171.30322266 87.68579102 C171.00707318 73.71921879 165.75207339 62.2467927 156.1875 52.1875 C151.49379742 47.71096873 146.72849435 44.33733825 140.9375 41.4375 C139.60138672 40.76074219 139.60138672 40.76074219 138.23828125 40.0703125 C132.46035896 37.40600454 126.72778098 35.77611308 120.5 34.625 C119.84507568 34.5010083 119.19015137 34.3770166 118.51538086 34.24926758 C107.09430122 32.36816489 95.66110089 33.63604072 84.25 34.9375 C43.78486812 39.29469819 16.18295368 29.13014143 -17.37109375 7.6875 C-24.7040508 3.01358692 -31.8820217 -1.48543936 -40.0625 -4.5625 C-41.32707031 -5.03816406 -41.32707031 -5.03816406 -42.6171875 -5.5234375 C-63.73300872 -12.35318383 -87.12645499 -4.86385301 -101.19140625 11.98828125 Z " fill="#FFFFFF" transform="translate(297.0625,315.5625)"/>
<path d="M0 0 C4.98748778 0.57473004 8.70921143 2.89559466 13 5.3125 C29.93126924 14.48683924 47.15471394 17.46341801 66.1328125 14.5078125 C70.17481522 13.97704447 73.93128684 13.9184445 78 14 C76.94477933 19.92242603 72.57943519 24.1880376 67.78125 27.55859375 C57.11558162 33.71326883 45.30645353 34.56691942 33.35546875 32.3125 C20.86900961 28.75763619 10.48902191 22.45905082 4.02612305 11.01782227 C0 3.63166646 0 3.63166646 0 0 Z " fill="#FFFFFF" transform="translate(293,362)"/>
</svg>
